<svg width="50" height="1645" viewBox="0 0 50 1645" fill="none" xmlns="http://www.w3.org/2000/svg">
<path d="M41.0363 131.217C41.0363 107.193 5 87.173 5 71.1568L20.8546 83.0478C20.9612 83.1277 21.0827 83.1856 21.212 83.2179L36.1339 86.9484C36.6408 87.0751 37.1598 86.7902 37.3251 86.2944L40.985 75.3148C41.0189 75.2128 41.0363 75.1061 41.0363 74.9986L41.0363 59.1447" stroke="#9698F1" stroke-width="10" stroke-linejoin="round"/>
<path d="M41.0363 131.217C41.0363 107.193 5 87.173 5 71.1568L20.8546 83.0478C20.9612 83.1277 21.0827 83.1856 21.212 83.2179L36.1339 86.9484C36.6408 87.0751 37.1598 86.7902 37.3251 86.2944L40.985 75.3148C41.0189 75.2128 41.0363 75.1061 41.0363 74.9986L41.0363 59.1447" stroke="#9698F1" stroke-width="10" stroke-linejoin="round"/>
<path d="M41.3224 347.435C41.3224 323.41 5.28613 303.39 5.28613 287.374L21.1407 299.265C21.2473 299.345 21.3689 299.403 21.4982 299.435L36.42 303.166C36.9269 303.292 37.446 303.007 37.6112 302.512L41.2711 291.532C41.3051 291.43 41.3224 291.323 41.3224 291.216L41.3224 275.362" stroke="#9698F1" stroke-width="10" stroke-linejoin="round"/>
<path d="M41.3224 347.435C41.3224 323.41 5.28613 303.39 5.28613 287.374L21.1407 299.265C21.2473 299.345 21.3689 299.403 21.4982 299.435L36.42 303.166C36.9269 303.292 37.446 303.007 37.6112 302.512L41.2711 291.532C41.3051 291.43 41.3224 291.323 41.3224 291.216L41.3224 275.362" stroke="#9698F1" stroke-width="10" stroke-linejoin="round"/>
<path d="M41.6085 563.652C41.6085 539.628 5.57227 519.608 5.57227 503.592L21.4268 515.483C21.5335 515.563 21.655 515.621 21.7843 515.653L36.7061 519.383C37.2131 519.51 37.7321 519.225 37.8973 518.73L41.5572 507.75C41.5912 507.648 41.6085 507.541 41.6085 507.434L41.6085 491.58" stroke="#9698F1" stroke-width="10" stroke-linejoin="round"/>
<path d="M41.6085 563.652C41.6085 539.628 5.57227 519.608 5.57227 503.592L21.4268 515.483C21.5335 515.563 21.655 515.621 21.7843 515.653L36.7061 519.383C37.2131 519.51 37.7321 519.225 37.8973 518.73L41.5572 507.75C41.5912 507.648 41.6085 507.541 41.6085 507.434L41.6085 491.58" stroke="#9698F1" stroke-width="10" stroke-linejoin="round"/>
<path d="M41.8947 779.87C41.8947 755.846 5.8584 735.826 5.8584 719.81L21.713 731.701C21.8196 731.781 21.9411 731.838 22.0704 731.871L36.9923 735.601C37.4992 735.728 38.0182 735.443 38.1835 734.947L41.8434 723.968C41.8773 723.866 41.8947 723.759 41.8947 723.651L41.8947 707.798" stroke="#9698F1" stroke-width="10" stroke-linejoin="round"/>
<path d="M41.8947 779.87C41.8947 755.846 5.8584 735.826 5.8584 719.81L21.713 731.701C21.8196 731.781 21.9411 731.838 22.0704 731.871L36.9923 735.601C37.4992 735.728 38.0182 735.443 38.1835 734.947L41.8434 723.968C41.8773 723.866 41.8947 723.759 41.8947 723.651L41.8947 707.798" stroke="#9698F1" stroke-width="10" stroke-linejoin="round"/>
<path d="M42.1808 996.088C42.1808 972.064 6.14453 952.044 6.14453 936.027L21.9991 947.918C22.1057 947.998 22.2273 948.056 22.3566 948.089L37.2784 951.819C37.7853 951.946 38.3044 951.661 38.4696 951.165L42.1295 940.185C42.1635 940.083 42.1808 939.977 42.1808 939.869L42.1808 924.015" stroke="#9698F1" stroke-width="10" stroke-linejoin="round"/>
<path d="M42.1808 996.088C42.1808 972.064 6.14453 952.044 6.14453 936.027L21.9991 947.918C22.1057 947.998 22.2273 948.056 22.3566 948.089L37.2784 951.819C37.7853 951.946 38.3044 951.661 38.4696 951.165L42.1295 940.185C42.1635 940.083 42.1808 939.977 42.1808 939.869L42.1808 924.015" stroke="#9698F1" stroke-width="10" stroke-linejoin="round"/>
<path d="M42.4669 1212.31C42.4669 1188.28 6.43066 1168.26 6.43066 1152.25L22.2852 1164.14C22.3919 1164.22 22.5134 1164.27 22.6427 1164.31L37.5645 1168.04C38.0715 1168.16 38.5905 1167.88 38.7557 1167.38L42.4156 1156.4C42.4496 1156.3 42.4669 1156.19 42.4669 1156.09L42.4669 1140.23" stroke="#9698F1" stroke-width="10" stroke-linejoin="round"/>
<path d="M42.4669 1212.31C42.4669 1188.28 6.43066 1168.26 6.43066 1152.25L22.2852 1164.14C22.3919 1164.22 22.5134 1164.27 22.6427 1164.31L37.5645 1168.04C38.0715 1168.16 38.5905 1167.88 38.7557 1167.38L42.4156 1156.4C42.4496 1156.3 42.4669 1156.19 42.4669 1156.09L42.4669 1140.23" stroke="#9698F1" stroke-width="10" stroke-linejoin="round"/>
<path d="M42.7531 1428.52C42.7531 1404.5 6.7168 1384.48 6.7168 1368.46L22.5714 1380.35C22.678 1380.43 22.7995 1380.49 22.9288 1380.52L37.8507 1384.25C38.3576 1384.38 38.8766 1384.1 39.0419 1383.6L42.7018 1372.62C42.7357 1372.52 42.7531 1372.41 42.7531 1372.3L42.7531 1356.45" stroke="#9698F1" stroke-width="10" stroke-linejoin="round"/>
<path d="M42.7531 1428.52C42.7531 1404.5 6.7168 1384.48 6.7168 1368.46L22.5714 1380.35C22.678 1380.43 22.7995 1380.49 22.9288 1380.52L37.8507 1384.25C38.3576 1384.38 38.8766 1384.1 39.0419 1383.6L42.7018 1372.62C42.7357 1372.52 42.7531 1372.41 42.7531 1372.3L42.7531 1356.45" stroke="#9698F1" stroke-width="10" stroke-linejoin="round"/>
<path d="M43.0392 1644.74C43.0392 1620.72 7.00293 1600.7 7.00293 1584.68L22.8575 1596.57C22.9641 1596.65 23.0857 1596.71 23.215 1596.74L38.1368 1600.47C38.6437 1600.6 39.1628 1600.31 39.328 1599.82L42.9879 1588.84C43.0219 1588.74 43.0392 1588.63 43.0392 1588.52L43.0392 1572.67" stroke="#9698F1" stroke-width="10" stroke-linejoin="round"/>
<path d="M43.0392 1644.74C43.0392 1620.72 7.00293 1600.7 7.00293 1584.68L22.8575 1596.57C22.9641 1596.65 23.0857 1596.71 23.215 1596.74L38.1368 1600.47C38.6437 1600.6 39.1628 1600.31 39.328 1599.82L42.9879 1588.84C43.0219 1588.74 43.0392 1588.63 43.0392 1588.52L43.0392 1572.67" stroke="#9698F1" stroke-width="10" stroke-linejoin="round"/>
<path d="M41.0363 59.1445C41.0363 35.1203 5 15.1002 5 -0.915922L20.8546 10.975C20.9612 11.055 21.0827 11.1128 21.212 11.1451L36.1339 14.8756C36.6408 15.0023 37.1598 14.7174 37.3251 14.2217L40.985 3.24206C41.0189 3.14009 41.0363 3.03331 41.0363 2.92583L41.0363 -12.928" stroke="#9698F1" stroke-width="10" stroke-linejoin="round"/>
<path d="M41.0363 59.1445C41.0363 35.1203 5 15.1002 5 -0.915922L20.8546 10.975C20.9612 11.055 21.0827 11.1128 21.212 11.1451L36.1339 14.8756C36.6408 15.0023 37.1598 14.7174 37.3251 14.2217L40.985 3.24206C41.0189 3.14009 41.0363 3.03331 41.0363 2.92583L41.0363 -12.928" stroke="#9698F1" stroke-width="10" stroke-linejoin="round"/>
<path d="M41.3224 275.362C41.3224 251.338 5.28613 231.317 5.28613 215.301L21.1407 227.192C21.2473 227.272 21.3689 227.33 21.4982 227.362L36.42 231.093C36.9269 231.22 37.446 230.935 37.6112 230.439L41.2711 219.459C41.3051 219.357 41.3224 219.251 41.3224 219.143L41.3224 203.289" stroke="#9698F1" stroke-width="10" stroke-linejoin="round"/>
<path d="M41.3224 275.362C41.3224 251.338 5.28613 231.317 5.28613 215.301L21.1407 227.192C21.2473 227.272 21.3689 227.33 21.4982 227.362L36.42 231.093C36.9269 231.22 37.446 230.935 37.6112 230.439L41.2711 219.459C41.3051 219.357 41.3224 219.251 41.3224 219.143L41.3224 203.289" stroke="#9698F1" stroke-width="10" stroke-linejoin="round"/>
<path d="M41.6085 491.58C41.6085 467.555 5.57227 447.535 5.57227 431.519L21.4268 443.41C21.5335 443.49 21.655 443.548 21.7843 443.58L36.7061 447.311C37.2131 447.437 37.7321 447.152 37.8973 446.657L41.5572 435.677C41.5912 435.575 41.6085 435.468 41.6085 435.361L41.6085 419.507" stroke="#9698F1" stroke-width="10" stroke-linejoin="round"/>
<path d="M41.6085 491.58C41.6085 467.555 5.57227 447.535 5.57227 431.519L21.4268 443.41C21.5335 443.49 21.655 443.548 21.7843 443.58L36.7061 447.311C37.2131 447.437 37.7321 447.152 37.8973 446.657L41.5572 435.677C41.5912 435.575 41.6085 435.468 41.6085 435.361L41.6085 419.507" stroke="#9698F1" stroke-width="10" stroke-linejoin="round"/>
<path d="M41.8947 707.797C41.8947 683.773 5.8584 663.753 5.8584 647.737L21.713 659.628C21.8196 659.708 21.9411 659.766 22.0704 659.798L36.9923 663.528C37.4992 663.655 38.0182 663.37 38.1835 662.875L41.8434 651.895C41.8773 651.793 41.8947 651.686 41.8947 651.579L41.8947 635.725" stroke="#9698F1" stroke-width="10" stroke-linejoin="round"/>
<path d="M41.8947 707.797C41.8947 683.773 5.8584 663.753 5.8584 647.737L21.713 659.628C21.8196 659.708 21.9411 659.766 22.0704 659.798L36.9923 663.528C37.4992 663.655 38.0182 663.37 38.1835 662.875L41.8434 651.895C41.8773 651.793 41.8947 651.686 41.8947 651.579L41.8947 635.725" stroke="#9698F1" stroke-width="10" stroke-linejoin="round"/>
<path d="M42.1808 924.015C42.1808 899.991 6.14453 879.971 6.14453 863.955L21.9991 875.846C22.1057 875.926 22.2273 875.983 22.3566 876.016L37.2784 879.746C37.7853 879.873 38.3044 879.588 38.4696 879.092L42.1295 868.113C42.1635 868.011 42.1808 867.904 42.1808 867.796L42.1808 851.943" stroke="#9698F1" stroke-width="10" stroke-linejoin="round"/>
<path d="M42.1808 924.015C42.1808 899.991 6.14453 879.971 6.14453 863.955L21.9991 875.846C22.1057 875.926 22.2273 875.983 22.3566 876.016L37.2784 879.746C37.7853 879.873 38.3044 879.588 38.4696 879.092L42.1295 868.113C42.1635 868.011 42.1808 867.904 42.1808 867.796L42.1808 851.943" stroke="#9698F1" stroke-width="10" stroke-linejoin="round"/>
<path d="M42.4669 1140.23C42.4669 1116.21 6.43066 1096.19 6.43066 1080.17L22.2852 1092.06C22.3919 1092.14 22.5134 1092.2 22.6427 1092.23L37.5645 1095.96C38.0715 1096.09 38.5905 1095.81 38.7557 1095.31L42.4156 1084.33C42.4496 1084.23 42.4669 1084.12 42.4669 1084.01L42.4669 1068.16" stroke="#9698F1" stroke-width="10" stroke-linejoin="round"/>
<path d="M42.4669 1140.23C42.4669 1116.21 6.43066 1096.19 6.43066 1080.17L22.2852 1092.06C22.3919 1092.14 22.5134 1092.2 22.6427 1092.23L37.5645 1095.96C38.0715 1096.09 38.5905 1095.81 38.7557 1095.31L42.4156 1084.33C42.4496 1084.23 42.4669 1084.12 42.4669 1084.01L42.4669 1068.16" stroke="#9698F1" stroke-width="10" stroke-linejoin="round"/>
<path d="M42.7531 1356.45C42.7531 1332.43 6.7168 1312.41 6.7168 1296.39L22.5714 1308.28C22.678 1308.36 22.7995 1308.42 22.9288 1308.45L37.8507 1312.18C38.3576 1312.31 38.8766 1312.02 39.0419 1311.53L42.7018 1300.55C42.7357 1300.45 42.7531 1300.34 42.7531 1300.23L42.7531 1284.38" stroke="#9698F1" stroke-width="10" stroke-linejoin="round"/>
<path d="M42.7531 1356.45C42.7531 1332.43 6.7168 1312.41 6.7168 1296.39L22.5714 1308.28C22.678 1308.36 22.7995 1308.42 22.9288 1308.45L37.8507 1312.18C38.3576 1312.31 38.8766 1312.02 39.0419 1311.53L42.7018 1300.55C42.7357 1300.45 42.7531 1300.34 42.7531 1300.23L42.7531 1284.38" stroke="#9698F1" stroke-width="10" stroke-linejoin="round"/>
<path d="M43.0392 1572.67C43.0392 1548.64 7.00293 1528.62 7.00293 1512.61L22.8575 1524.5C22.9641 1524.58 23.0857 1524.64 23.215 1524.67L38.1368 1528.4C38.6437 1528.53 39.1628 1528.24 39.328 1527.75L42.9879 1516.77C43.0219 1516.66 43.0392 1516.56 43.0392 1516.45L43.0392 1500.6" stroke="#9698F1" stroke-width="10" stroke-linejoin="round"/>
<path d="M43.0392 1572.67C43.0392 1548.64 7.00293 1528.62 7.00293 1512.61L22.8575 1524.5C22.9641 1524.58 23.0857 1524.64 23.215 1524.67L38.1368 1528.4C38.6437 1528.53 39.1628 1528.24 39.328 1527.75L42.9879 1516.77C43.0219 1516.66 43.0392 1516.56 43.0392 1516.45L43.0392 1500.6" stroke="#9698F1" stroke-width="10" stroke-linejoin="round"/>
<path d="M41.3224 203.29C41.3224 179.265 5.28613 159.245 5.28613 143.229L21.1407 155.12C21.2473 155.2 21.3689 155.258 21.4982 155.29L36.42 159.021C36.9269 159.147 37.446 158.862 37.6112 158.367L41.2711 147.387C41.3051 147.285 41.3224 147.178 41.3224 147.071L41.3224 131.217" stroke="#9698F1" stroke-width="10" stroke-linejoin="round"/>
<path d="M41.3224 203.29C41.3224 179.265 5.28613 159.245 5.28613 143.229L21.1407 155.12C21.2473 155.2 21.3689 155.258 21.4982 155.29L36.42 159.021C36.9269 159.147 37.446 158.862 37.6112 158.367L41.2711 147.387C41.3051 147.285 41.3224 147.178 41.3224 147.071L41.3224 131.217" stroke="#9698F1" stroke-width="10" stroke-linejoin="round"/>
<path d="M41.6085 419.507C41.6085 395.483 5.57227 375.463 5.57227 359.447L21.4268 371.338C21.5335 371.418 21.655 371.476 21.7843 371.508L36.7061 375.238C37.2131 375.365 37.7321 375.08 37.8973 374.584L41.5572 363.605C41.5912 363.503 41.6085 363.396 41.6085 363.289L41.6085 347.435" stroke="#9698F1" stroke-width="10" stroke-linejoin="round"/>
<path d="M41.6085 419.507C41.6085 395.483 5.57227 375.463 5.57227 359.447L21.4268 371.338C21.5335 371.418 21.655 371.476 21.7843 371.508L36.7061 375.238C37.2131 375.365 37.7321 375.08 37.8973 374.584L41.5572 363.605C41.5912 363.503 41.6085 363.396 41.6085 363.289L41.6085 347.435" stroke="#9698F1" stroke-width="10" stroke-linejoin="round"/>
<path d="M41.8947 635.725C41.8947 611.701 5.8584 591.681 5.8584 575.665L21.713 587.556C21.8196 587.636 21.9411 587.693 22.0704 587.726L36.9923 591.456C37.4992 591.583 38.0182 591.298 38.1835 590.802L41.8434 579.823C41.8773 579.721 41.8947 579.614 41.8947 579.506L41.8947 563.653" stroke="#9698F1" stroke-width="10" stroke-linejoin="round"/>
<path d="M41.8947 635.725C41.8947 611.701 5.8584 591.681 5.8584 575.665L21.713 587.556C21.8196 587.636 21.9411 587.693 22.0704 587.726L36.9923 591.456C37.4992 591.583 38.0182 591.298 38.1835 590.802L41.8434 579.823C41.8773 579.721 41.8947 579.614 41.8947 579.506L41.8947 563.653" stroke="#9698F1" stroke-width="10" stroke-linejoin="round"/>
<path d="M42.1808 851.943C42.1808 827.919 6.14453 807.899 6.14453 791.882L21.9991 803.773C22.1057 803.853 22.2273 803.911 22.3566 803.943L37.2784 807.674C37.7853 807.801 38.3044 807.516 38.4696 807.02L42.1295 796.04C42.1635 795.938 42.1808 795.832 42.1808 795.724L42.1808 779.87" stroke="#9698F1" stroke-width="10" stroke-linejoin="round"/>
<path d="M42.1808 851.943C42.1808 827.919 6.14453 807.899 6.14453 791.882L21.9991 803.773C22.1057 803.853 22.2273 803.911 22.3566 803.943L37.2784 807.674C37.7853 807.801 38.3044 807.516 38.4696 807.02L42.1295 796.04C42.1635 795.938 42.1808 795.832 42.1808 795.724L42.1808 779.87" stroke="#9698F1" stroke-width="10" stroke-linejoin="round"/>
<path d="M42.4669 1068.16C42.4669 1044.14 6.43066 1024.12 6.43066 1008.1L22.2852 1019.99C22.3919 1020.07 22.5134 1020.13 22.6427 1020.16L37.5645 1023.89C38.0715 1024.02 38.5905 1023.73 38.7557 1023.24L42.4156 1012.26C42.4496 1012.16 42.4669 1012.05 42.4669 1011.94L42.4669 996.089" stroke="#9698F1" stroke-width="10" stroke-linejoin="round"/>
<path d="M42.4669 1068.16C42.4669 1044.14 6.43066 1024.12 6.43066 1008.1L22.2852 1019.99C22.3919 1020.07 22.5134 1020.13 22.6427 1020.16L37.5645 1023.89C38.0715 1024.02 38.5905 1023.73 38.7557 1023.24L42.4156 1012.26C42.4496 1012.16 42.4669 1012.05 42.4669 1011.94L42.4669 996.089" stroke="#9698F1" stroke-width="10" stroke-linejoin="round"/>
<path d="M42.7531 1284.38C42.7531 1260.35 6.7168 1240.33 6.7168 1224.32L22.5714 1236.21C22.678 1236.29 22.7995 1236.35 22.9288 1236.38L37.8507 1240.11C38.3576 1240.24 38.8766 1239.95 39.0419 1239.46L42.7018 1228.48C42.7357 1228.37 42.7531 1228.27 42.7531 1228.16L42.7531 1212.31" stroke="#9698F1" stroke-width="10" stroke-linejoin="round"/>
<path d="M42.7531 1284.38C42.7531 1260.35 6.7168 1240.33 6.7168 1224.32L22.5714 1236.21C22.678 1236.29 22.7995 1236.35 22.9288 1236.38L37.8507 1240.11C38.3576 1240.24 38.8766 1239.95 39.0419 1239.46L42.7018 1228.48C42.7357 1228.37 42.7531 1228.27 42.7531 1228.16L42.7531 1212.31" stroke="#9698F1" stroke-width="10" stroke-linejoin="round"/>
<path d="M43.0392 1500.6C43.0392 1476.57 7.00293 1456.55 7.00293 1440.54L22.8575 1452.43C22.9641 1452.51 23.0857 1452.56 23.215 1452.6L38.1368 1456.33C38.6437 1456.45 39.1628 1456.17 39.328 1455.67L42.9879 1444.69C43.0219 1444.59 43.0392 1444.49 43.0392 1444.38L43.0392 1428.52" stroke="#9698F1" stroke-width="10" stroke-linejoin="round"/>
<path d="M43.0392 1500.6C43.0392 1476.57 7.00293 1456.55 7.00293 1440.54L22.8575 1452.43C22.9641 1452.51 23.0857 1452.56 23.215 1452.6L38.1368 1456.33C38.6437 1456.45 39.1628 1456.17 39.328 1455.67L42.9879 1444.69C43.0219 1444.59 43.0392 1444.49 43.0392 1444.38L43.0392 1428.52" stroke="#9698F1" stroke-width="10" stroke-linejoin="round"/>
<path d="M43.3253 1716.81C43.3253 1692.79 7.28906 1672.77 7.28906 1656.75L23.1436 1668.64C23.2503 1668.72 23.3718 1668.78 23.5011 1668.82L38.4229 1672.55C38.9299 1672.67 39.4489 1672.39 39.6141 1671.89L43.274 1660.91C43.308 1660.81 43.3253 1660.7 43.3253 1660.6L43.3253 1644.74" stroke="#9698F1" stroke-width="10" stroke-linejoin="round"/>
<path d="M43.3253 1716.81C43.3253 1692.79 7.28906 1672.77 7.28906 1656.75L23.1436 1668.64C23.2503 1668.72 23.3718 1668.78 23.5011 1668.82L38.4229 1672.55C38.9299 1672.67 39.4489 1672.39 39.6141 1671.89L43.274 1660.91C43.308 1660.81 43.3253 1660.7 43.3253 1660.6L43.3253 1644.74" stroke="#9698F1" stroke-width="10" stroke-linejoin="round"/>
</svg>
